<svg data-v-423bf9ae="" xmlns="http://www.w3.org/2000/svg" viewBox="0 0 435 105" class="iconLeft"><!----><!----><!----><g data-v-423bf9ae="" id="b343d6be-597e-48d1-ba5b-4d0d78cc8131" fill="#ffffff" transform="matrix(6.0301508693628145,0,0,6.0301508693628145,120.05985559591409,5.214480702977767)"><path d="M1.24 12.61L1.24 2.95L2.98 2.95L2.98 10.96L7.11 10.96L7.11 12.61L1.24 12.61ZM10.12 12.74L10.12 12.74Q9.42 12.74 8.86 12.48L8.86 12.48L8.86 12.48Q8.29 12.22 7.97 11.71L7.97 11.71L7.97 11.71Q7.64 11.20 7.64 10.51L7.64 10.51L7.64 10.51Q7.64 9.46 8.38 9.00L8.38 9.00L8.38 9.00Q9.11 8.53 10.36 8.53L10.36 8.53L12.14 8.53L12.14 8.53Q12.14 7.87 11.79 7.48L11.79 7.48L11.79 7.48Q11.44 7.09 10.79 7.09L10.79 7.09L10.79 7.09Q10.25 7.09 9.84 7.36L9.84 7.36L9.84 7.36Q9.43 7.63 9.19 8.05L9.19 8.05L7.91 7.13L7.91 7.13Q8.44 6.41 9.13 6.02L9.13 6.02L9.13 6.02Q9.82 5.63 10.78 5.63L10.78 5.63L10.78 5.63Q11.70 5.63 12.36 5.99L12.36 5.99L12.36 5.99Q13.03 6.34 13.38 6.99L13.38 6.99L13.38 6.99Q13.73 7.63 13.73 8.46L13.73 8.46L13.73 12.61L12.36 12.61L12.25 11.63L12.25 11.63Q11.83 12.24 11.31 12.49L11.31 12.49L11.31 12.49Q10.78 12.74 10.12 12.74L10.12 12.74ZM10.36 11.33L10.36 11.33Q10.83 11.33 11.23 11.11L11.23 11.11L11.23 11.11Q11.63 10.89 11.88 10.52L11.88 10.52L11.88 10.52Q12.13 10.16 12.14 9.73L12.14 9.73L10.46 9.73L10.46 9.73Q9.92 9.73 9.64 9.97L9.64 9.97L9.64 9.97Q9.35 10.21 9.35 10.56L9.35 10.56L9.35 10.56Q9.35 10.91 9.62 11.12L9.62 11.12L9.62 11.12Q9.88 11.33 10.36 11.33L10.36 11.33ZM19.82 2.95L21.52 2.95L21.52 12.61L19.97 12.61L19.89 11.84L19.89 11.84Q19.56 12.30 19.03 12.52L19.03 12.52L19.03 12.52Q18.51 12.74 17.91 12.74L17.91 12.74L17.91 12.74Q16.98 12.74 16.31 12.26L16.31 12.26L16.31 12.26Q15.64 11.78 15.30 10.97L15.30 10.97L15.30 10.97Q14.95 10.16 14.95 9.19L14.95 9.19L14.95 9.19Q14.95 8.22 15.30 7.41L15.30 7.41L15.30 7.41Q15.64 6.60 16.30 6.12L16.30 6.12L16.30 6.12Q16.97 5.63 17.88 5.63L17.88 5.63L17.88 5.63Q18.46 5.63 18.97 5.84L18.97 5.84L18.97 5.84Q19.49 6.04 19.82 6.46L19.82 6.46L19.82 2.95ZM18.31 11.23L18.31 11.23Q19.14 11.23 19.55 10.67L19.55 10.67L19.55 10.67Q19.97 10.11 19.97 9.19L19.97 9.19L19.97 9.19Q19.97 8.27 19.55 7.71L19.55 7.71L19.55 7.71Q19.13 7.14 18.31 7.14L18.31 7.14L18.31 7.14Q17.49 7.14 17.07 7.71L17.07 7.71L17.07 7.71Q16.65 8.29 16.65 9.19L16.65 9.19L16.65 9.19Q16.65 10.10 17.07 10.66L17.07 10.66L17.07 10.66Q17.49 11.23 18.31 11.23L18.31 11.23ZM27.76 12.74L27.76 12.74Q26.23 12.74 25.18 12.07L25.18 12.07L25.18 12.07Q24.12 11.40 23.60 10.27L23.60 10.27L23.60 10.27Q23.08 9.14 23.08 7.77L23.08 7.77L23.08 7.77Q23.08 6.41 23.60 5.27L23.60 5.27L23.60 5.27Q24.12 4.14 25.17 3.47L25.17 3.47L25.17 3.47Q26.22 2.79 27.75 2.79L27.75 2.79L27.75 2.79Q29.19 2.79 30.29 3.50L30.29 3.50L30.29 3.50Q31.39 4.22 31.97 5.56L31.97 5.56L30.35 6.21L30.35 6.21Q30.09 5.29 29.41 4.87L29.41 4.87L29.41 4.87Q28.73 4.44 27.73 4.44L27.73 4.44L27.73 4.44Q26.75 4.44 26.09 4.87L26.09 4.87L26.09 4.87Q25.44 5.30 25.12 6.04L25.12 6.04L25.12 6.04Q24.81 6.77 24.81 7.70L24.81 7.70L24.81 7.70Q24.81 8.70 25.12 9.46L25.12 9.46L25.12 9.46Q25.44 10.22 26.10 10.66L26.10 10.66L26.10 10.66Q26.76 11.09 27.76 11.09L27.76 11.09L27.76 11.09Q28.72 11.09 29.36 10.67L29.36 10.67L29.36 10.67Q30.00 10.25 30.38 9.30L30.38 9.30L31.99 9.96L31.99 9.96Q31.42 11.31 30.31 12.02L30.31 12.02L30.31 12.02Q29.21 12.74 27.76 12.74L27.76 12.74ZM33.32 12.61L33.32 2.95L35.01 2.95L35.01 6.57L35.01 6.57Q35.40 6.09 35.93 5.86L35.93 5.86L35.93 5.86Q36.45 5.63 36.99 5.63L36.99 5.63L36.99 5.63Q37.84 5.63 38.41 6.04L38.41 6.04L38.41 6.04Q38.98 6.44 39.25 7.09L39.25 7.09L39.25 7.09Q39.51 7.75 39.51 8.50L39.51 8.50L39.51 12.61L37.82 12.61L37.82 8.72L37.82 8.72Q37.82 7.99 37.55 7.57L37.55 7.57L37.55 7.57Q37.28 7.14 36.59 7.14L36.59 7.14L36.59 7.14Q35.81 7.14 35.41 7.70L35.41 7.70L35.41 7.70Q35.01 8.25 35.01 9.15L35.01 9.15L35.01 12.61L33.32 12.61ZM43.16 12.74L43.16 12.74Q42.46 12.74 41.89 12.48L41.89 12.48L41.89 12.48Q41.33 12.22 41.01 11.71L41.01 11.71L41.01 11.71Q40.68 11.20 40.68 10.51L40.68 10.51L40.68 10.51Q40.68 9.46 41.42 9.00L41.42 9.00L41.42 9.00Q42.15 8.53 43.40 8.53L43.40 8.53L45.18 8.53L45.18 8.53Q45.18 7.87 44.83 7.48L44.83 7.48L44.83 7.48Q44.48 7.09 43.83 7.09L43.83 7.09L43.83 7.09Q43.29 7.09 42.88 7.36L42.88 7.36L42.88 7.36Q42.47 7.63 42.23 8.05L42.23 8.05L40.95 7.13L40.95 7.13Q41.47 6.41 42.17 6.02L42.17 6.02L42.17 6.02Q42.86 5.63 43.82 5.63L43.82 5.63L43.82 5.63Q44.73 5.63 45.40 5.99L45.40 5.99L45.40 5.99Q46.07 6.34 46.42 6.99L46.42 6.99L46.42 6.99Q46.77 7.63 46.77 8.46L46.77 8.46L46.77 12.61L45.40 12.61L45.29 11.63L45.29 11.63Q44.87 12.24 44.34 12.49L44.34 12.49L44.34 12.49Q43.82 12.74 43.16 12.74L43.16 12.74ZM43.40 11.33L43.40 11.33Q43.87 11.33 44.27 11.11L44.27 11.11L44.27 11.11Q44.67 10.89 44.92 10.52L44.92 10.52L44.92 10.52Q45.17 10.16 45.18 9.73L45.18 9.73L43.50 9.73L43.50 9.73Q42.96 9.73 42.67 9.97L42.67 9.97L42.67 9.97Q42.39 10.21 42.39 10.56L42.39 10.56L42.39 10.56Q42.39 10.91 42.66 11.12L42.66 11.12L42.66 11.12Q42.92 11.33 43.40 11.33L43.40 11.33ZM50.98 12.74L50.98 12.74Q50.31 12.74 49.82 12.50L49.82 12.50L49.82 12.50Q49.34 12.25 49.09 11.80L49.09 11.80L49.09 11.80Q48.83 11.34 48.83 10.72L48.83 10.72L48.83 7.17L47.73 7.17L47.73 5.78L48.86 5.78L48.86 4.08L50.48 2.89L50.48 5.78L52.21 5.78L52.21 7.17L50.48 7.17L50.48 10.42L50.48 10.42Q50.48 10.89 50.69 11.08L50.69 11.08L50.69 11.08Q50.89 11.27 51.26 11.27L51.26 11.27L51.26 11.27Q51.50 11.27 51.75 11.20L51.75 11.20L51.75 11.20Q52.00 11.13 52.21 11.03L52.21 11.03L52.21 12.54L52.21 12.54Q51.99 12.62 51.65 12.68L51.65 12.68L51.65 12.68Q51.30 12.74 50.98 12.74L50.98 12.74Z"></path></g><!----><g data-v-423bf9ae="" id="a773af80-a0c5-4889-8e81-7f5dd225472f" transform="matrix(1.0753666347927517,0,0,1.0753666347927517,0.2314213919926047,-1.159792498943638)" stroke="none" fill="#047DAF"><path d="M82.386 1.608h-52.85s-10.592.005-15.349 8.226c-4.763 1.546-9.946 5.307-11.09 14.302L.091 47.748s-2.224 17.477 15.253 19.7l50.133 6.377 16.962 24.566 3.911-30.746L100 82.872V19.225s0-17.617-17.614-17.617zm-4.032 80.007l-9.366-13.562-52.865-6.726C5.762 60.009 5.922 51.158 6.212 48.528l3.006-23.614c.353-2.778 1.288-4.944 2.729-6.564-.01.291-.027.573-.027.875v23.803s0 17.616 17.616 17.616h50.538l.83.927-2.55 20.044z"></path></g><!----></svg>